<svg width="14" height="14" viewBox="0 0 14 14" fill="none" xmlns="http://www.w3.org/2000/svg">
<path d="M12.577 14L7.80999 9.23404C6.7691 9.9207 5.51043 10.1967 4.27772 10.0085C3.04501 9.82039 1.92598 9.1815 1.13732 8.21559C0.348657 7.24968 -0.0535144 6.02547 0.00868238 4.78004C0.0708792 3.53461 0.593019 2.35657 1.47399 1.47404C2.35636 0.592736 3.5344 0.0702538 4.77993 0.00778926C6.02547 -0.0546753 7.24987 0.347323 8.21599 1.13592C9.1821 1.92453 9.82117 3.04361 10.0094 4.27642C10.1977 5.50923 9.92172 6.76804 9.23499 7.80904L14 12.577L12.577 14ZM5.03399 2.01404C4.23304 2.01351 3.46468 2.33118 2.89794 2.89716C2.33121 3.46315 2.01252 4.23109 2.01199 5.03204C2.01146 5.83299 2.32913 6.60135 2.89511 7.16809C3.4611 7.73482 4.22904 8.05351 5.02999 8.05404C5.42658 8.0543 5.81934 7.97645 6.18585 7.82492C6.55235 7.6734 6.88542 7.45116 7.16604 7.17092C7.44666 6.89067 7.66933 6.55789 7.82134 6.19159C7.97335 5.82529 8.05173 5.43263 8.05199 5.03604C8.05225 4.63945 7.9744 4.24669 7.82287 3.88018C7.67135 3.51368 7.44911 3.18061 7.16887 2.89999C6.88862 2.61937 6.55584 2.3967 6.18954 2.24469C5.82324 2.09268 5.43058 2.0143 5.03399 2.01404V2.01404Z" fill="black"/>
</svg>
