<svg width="25" height="25" viewBox="0 0 25 25" fill="none" xmlns="http://www.w3.org/2000/svg">
<g clip-path="url(#clip0_10928_634)">
<path d="M9.45657 22.3737C10.0089 22.3737 10.4566 21.9259 10.4566 21.3737C10.4566 20.8214 10.0089 20.3737 9.45657 20.3737C8.90429 20.3737 8.45657 20.8214 8.45657 21.3737C8.45657 21.9259 8.90429 22.3737 9.45657 22.3737Z" stroke="black" stroke-width="2" stroke-linecap="round" stroke-linejoin="round"/>
<path d="M20.4566 22.3737C21.0089 22.3737 21.4566 21.9259 21.4566 21.3737C21.4566 20.8214 21.0089 20.3737 20.4566 20.3737C19.9043 20.3737 19.4566 20.8214 19.4566 21.3737C19.4566 21.9259 19.9043 22.3737 20.4566 22.3737Z" stroke="black" stroke-width="2" stroke-linecap="round" stroke-linejoin="round"/>
<path d="M1.45657 1.37366H5.45657L8.13657 14.7637C8.22802 15.2241 8.47848 15.6376 8.84412 15.932C9.20976 16.2263 9.66727 16.3827 10.1366 16.3737H19.8566C20.3259 16.3827 20.7834 16.2263 21.149 15.932C21.5147 15.6376 21.7651 15.2241 21.8566 14.7637L23.4566 6.37366H6.45657" stroke="black" stroke-width="2" stroke-linecap="round" stroke-linejoin="round"/>
</g>
<defs>
<clipPath id="clip0_10928_634">
<rect width="24" height="24" fill="white" transform="translate(0.456573 0.373657)"/>
</clipPath>
</defs>
</svg>
