<svg width="26" height="26" viewBox="0 0 26 26" fill="none" xmlns="http://www.w3.org/2000/svg">
<g clip-path="url(#clip0_10928_632)">
<path d="M12.9566 14.3165C16.8384 14.3165 19.9878 11.1671 19.9878 7.28528C19.9878 3.40344 16.8384 0.254028 12.9566 0.254028C9.07474 0.254028 5.92532 3.40344 5.92532 7.28528C5.92532 11.1671 9.07474 14.3165 12.9566 14.3165ZM19.2066 15.879H16.5161C15.4322 16.3771 14.2261 16.6603 12.9566 16.6603C11.687 16.6603 10.4859 16.3771 9.397 15.879H6.70657C3.25443 15.879 0.456573 18.6769 0.456573 22.129V22.9103C0.456573 24.2042 1.50638 25.254 2.80032 25.254H23.1128C24.4068 25.254 25.4566 24.2042 25.4566 22.9103V22.129C25.4566 18.6769 22.6587 15.879 19.2066 15.879Z" fill="black"/>
</g>
<defs>
<clipPath id="clip0_10928_632">
<rect width="25" height="25" fill="white" transform="translate(0.456573 0.254028)"/>
</clipPath>
</defs>
</svg>
